<svg version="1.1" id="Layer_1" xmlns="http://www.w3.org/2000/svg" 
     viewBox="320 0 768 768" xmlns:xlink="http://www.w3.org/1999/xlink" xml:space="preserve">
    <!-- I changed the viewBox from "0 0 1408 768" to "320 0 768 768" to make it square -->
    
    <path fill="#07EB7E" stroke="none" d="M720.172607,718.141724 C651.204285,720.924683 587.979126,703.963684 530.296875,666.961060 C462.047821,623.179932 414.668060,562.662292 390.758545,485.310760 C359.333313,383.644684 373.640015,287.363190 432.250946,198.671051 C476.714691,131.386978 538.539612,86.135483 616.344910,64.307510 C694.631104,42.344608 771.141602,48.882683 844.759705,83.639870 C861.100037,91.354622 876.432922,101.282341 891.915283,110.707474 C902.048096,116.876007 906.497498,126.750023 905.456238,138.404083 C903.463135,160.709335 878.856079,171.749115 859.505554,159.589005 C847.254150,151.890060 835.029053,143.992615 822.119934,137.526154 C782.623169,117.741264 740.487671,108.560341 696.421387,110.497581 C609.357056,114.325104 539.517883,151.989639 487.888641,221.754135 C444.384521,280.539490 427.044495,347.243103 436.294312,419.901764 C445.637909,493.297455 479.933777,553.442566 537.221130,600.207642 C578.175842,633.639954 625.307190,653.006897 677.787476,658.708984 C731.320923,664.525635 782.098022,654.326477 829.432678,628.879456 C890.037720,596.298279 933.460571,547.854492 957.878845,483.409698 C981.798523,420.280640 982.330933,356.444550 960.024109,292.594574 C953.660889,274.380859 961.557312,256.823364 978.567383,251.896393 C993.019897,247.710251 1007.886047,254.574997 1013.541199,268.499908 C1023.829346,293.832367 1029.599731,320.319061 1032.710571,347.400482 C1039.560425,407.027527 1030.996338,464.520599 1006.707642,519.286804 C976.956543,586.369507 930.121643,638.637329 866.437195,675.313721 C821.364136,701.271606 772.731262,715.733093 720.172607,718.141724 z"/>
    <path fill="#07EB7E" stroke="none" d="M572.886963,356.219116 C574.458435,343.958862 580.824463,335.443207 591.851135,331.520447 C603.186768,327.487854 613.829651,329.515991 622.569641,338.603210 C644.161865,361.053375 665.841797,383.419220 687.406372,405.895874 C689.334290,407.905334 690.679260,410.474091 691.588867,411.773956 C704.027161,399.953064 715.447083,389.751465 726.125366,378.825073 C754.061096,350.240387 781.692078,321.357666 809.407288,292.557861 C830.999023,270.121216 852.532776,247.628693 874.096252,225.164795 C889.664917,208.946014 905.192993,192.687912 920.828979,176.534256 C931.264038,165.753677 948.761047,164.932190 959.881653,174.523117 C971.732483,184.743774 974.072083,203.278381 963.927185,215.019012 C953.267761,227.355240 941.627502,238.849335 930.319458,250.618790 C888.778137,293.855255 847.221558,337.077087 805.622070,380.257538 C775.919189,411.089233 746.185852,441.891907 716.370972,472.615234 C702.739807,486.661774 685.131775,486.777679 671.532776,472.833557 C641.759705,442.304840 612.123901,411.642059 582.459656,381.007355 C575.914307,374.247894 572.195923,366.309967 572.886963,356.219116 z"/>
</svg>